<svg width="24" height="24" viewBox="0 0 24 24" fill="none" xmlns="http://www.w3.org/2000/svg">
<g clip-path="url(#clip0_70_121)">
<path d="M23.9709 13.596C24.0681 10.6819 23.9175 7.76473 23.5209 4.87604C23.537 4.66969 23.537 4.4624 23.5209 4.25604C23.3819 3.58704 21.3739 3.25704 20.5249 3.17704C20.4468 3.16855 20.3685 3.19102 20.3068 3.23964C20.2451 3.28825 20.205 3.35913 20.1949 3.43704C20.1449 4.09704 21.1949 3.43704 22.8029 4.43704C22.7843 5.14674 22.8413 5.85641 22.9729 6.55404C23.2129 8.79104 23.0829 10.34 22.9729 16.283C21.7857 16.0242 20.5696 15.9234 19.3559 15.983C17.0937 15.9675 14.8843 16.6668 13.0429 17.981C13.7229 15.344 15.3809 14.635 17.7179 13.796C17.9829 13.713 18.2599 13.676 18.5379 13.686C18.593 13.8073 18.6888 13.9055 18.8087 13.9635C18.9286 14.0216 19.065 14.0358 19.1943 14.0037C19.3235 13.9716 19.4375 13.8953 19.5164 13.7879C19.5952 13.6806 19.634 13.549 19.6259 13.416C19.2459 3.31705 19.6259 1.89904 19.4659 0.960045C19.3059 0.0210446 18.6269 -0.0899555 17.6779 -0.229955C16.5123 -0.352425 15.3351 -0.160366 14.2689 0.326249C13.2026 0.812863 12.2862 1.57626 11.6149 2.53704C11.5349 2.70704 11.0649 3.74604 11.0249 3.85604C10.3429 3.33592 9.55558 2.97077 8.71795 2.78604C6.56613 2.30894 4.31342 2.66634 2.41494 3.78604C2.04509 4.02666 1.72845 4.34051 1.48457 4.70822C1.24069 5.07594 1.07474 5.48972 0.996945 5.92404C0.116945 9.48004 -0.412055 10.53 0.406945 18.091C0.406945 18.401 0.406945 18.881 0.706945 19.17C0.774183 19.2262 0.85289 19.2669 0.937541 19.2893C1.02219 19.3118 1.11073 19.3154 1.19694 19.3V20.069C1.32694 21.867 3.71394 20.769 6.34094 20.549C8.51794 20.379 8.75794 20.848 10.6859 21.967C11.4795 22.2652 12.3394 22.3413 13.1729 22.187C13.8562 22.084 14.5042 21.8163 15.0609 21.407C21.6439 16.563 21.4139 22.227 22.9529 18.161C23.0229 17.9744 23.0663 17.781 23.0829 17.581C23.1604 17.6315 23.2498 17.6608 23.3421 17.666C23.4344 17.6713 23.5264 17.6523 23.6091 17.6109C23.6918 17.5696 23.7623 17.5073 23.8135 17.4303C23.8647 17.3533 23.8948 17.2643 23.9009 17.172C23.9936 15.9807 24.0169 14.7887 23.9709 13.596ZM11.8649 4.38604C14.8599 -1.24796 18.5769 1.23004 18.7369 1.39004C18.8169 1.69004 18.3669 8.46304 18.3469 9.08204L18.4369 12.528C17.3291 12.6476 16.2584 12.9973 15.2936 13.5548C14.3287 14.1122 13.4909 14.865 12.8339 15.765C12.3339 16.624 12.5039 16.714 12.4139 16.145C12.3939 16.045 11.8239 4.46704 11.8639 4.38704M1.07694 8.72104C1.36694 7.61304 1.72594 4.79604 2.68494 4.47604C5.48194 3.53704 8.27894 3.30704 10.8749 4.72604C11.1839 5.58304 11.3229 6.49204 11.2849 7.40304C11.2849 9.45004 11.3449 15.633 11.5849 17.492C9.99478 16.7674 8.25713 16.425 6.51094 16.492C5.1296 16.6161 3.77885 16.971 2.51494 17.542C2.39494 17.542 1.83494 18.111 1.43594 18.331C1.43594 18.191 1.32594 18.031 1.31594 17.951C0.995945 15.234 0.526945 11.658 1.07594 8.72104M21.6129 18.541C18.7359 17.391 16.4489 19.02 14.4109 20.478C13.9754 20.7694 13.4848 20.9684 12.9693 21.063C12.4539 21.1576 11.9246 21.1457 11.4139 21.028C7.54794 18.291 6.04994 19.599 2.55394 20.128C2.37394 20.128 2.23394 20.218 2.14394 20.128C2.05394 20.038 1.95394 19.46 1.72394 19.13C2.15394 18.91 2.72394 18.56 2.86394 18.52C4.33194 18.061 5.98995 16.982 9.58595 17.981C12.2429 18.671 12.1029 19.829 13.0019 19.34C14.3409 18.62 16.2689 16.463 22.3019 17.192C22.2421 17.2653 22.2103 17.3575 22.2119 17.452C21.6219 18.511 21.6519 18.441 21.6119 18.54" fill="#002E52"/>
<path d="M3.64403 8.99206C4.64303 8.85206 4.56303 8.36206 5.88103 8.36206C6.61625 8.41564 7.34153 8.56351 8.03903 8.80206C8.22903 8.73206 8.36903 8.65206 8.36903 8.46206C8.36903 8.03306 7.76903 7.59406 6.86003 7.46406C4.23303 6.97406 3.98303 8.23306 3.48403 8.46306C3.43835 8.50068 3.40482 8.55097 3.38765 8.60761C3.37048 8.66424 3.37045 8.72469 3.38755 8.78134C3.40465 8.83799 3.43813 8.88832 3.48377 8.926C3.5294 8.96367 3.58516 8.987 3.64403 8.99306M3.64403 12.5181C4.64303 12.3781 4.56303 11.8891 5.88103 11.8891C6.61603 11.9421 7.34103 12.0901 8.03903 12.3291C8.22903 12.2691 8.36903 12.1791 8.36903 11.9891C8.36903 11.5591 7.76903 11.1291 6.86003 10.9901C4.23303 10.5001 3.98303 11.7501 3.48403 11.9891C3.43488 11.984 3.38524 11.9912 3.33952 12.0099C3.2938 12.0287 3.25342 12.0584 3.22196 12.0965C3.1905 12.1346 3.16895 12.1799 3.1592 12.2283C3.14946 12.2768 3.15184 12.3269 3.16612 12.3742C3.1804 12.4215 3.20614 12.4645 3.24106 12.4995C3.27598 12.5345 3.319 12.5603 3.36629 12.5746C3.41357 12.5889 3.46367 12.5914 3.51212 12.5817C3.56058 12.572 3.60589 12.5505 3.64403 12.5191M3.64403 16.0841C4.64303 15.9441 4.56303 15.4551 5.88103 15.4551C6.61567 15.5128 7.34042 15.6606 8.03903 15.8951C8.22903 15.8351 8.36903 15.7451 8.36903 15.5651C8.36903 15.1251 7.76903 14.6951 6.86003 14.5661C4.23303 14.0761 3.98303 15.3361 3.48403 15.5651C3.42127 15.5558 3.35721 15.5668 3.3011 15.5964C3.24499 15.626 3.19975 15.6727 3.17192 15.7297C3.14409 15.7867 3.1351 15.8511 3.14627 15.9135C3.15744 15.976 3.18817 16.0332 3.23403 16.0771C3.28872 16.13 3.36151 16.1602 3.43765 16.1615C3.51378 16.1628 3.58756 16.1351 3.64403 16.0841Z" fill="#002E52"/>
</g>
<defs>
<clipPath id="clip0_70_121">
<rect width="24" height="24" fill="white"/>
</clipPath>
</defs>
</svg>
