<svg width="24" height="24" viewBox="0 0 24 24" fill="none" xmlns="http://www.w3.org/2000/svg">
<path d="M12 22C17.5228 22 22 17.5228 22 12C22 6.47715 17.5228 2 12 2C6.47715 2 2 6.47715 2 12C2 17.5228 6.47715 22 12 22Z" stroke="#002E52" stroke-width="1.5"/>
<path d="M8.12897 11.5981L12.128 6.20808C12.441 5.78608 13.027 6.04808 13.027 6.61008V10.7821C13.027 11.1181 13.257 11.3911 13.541 11.3911H15.485C15.927 11.3911 16.163 12.0091 15.871 12.4021L11.872 17.7921C11.559 18.2141 10.973 17.9521 10.973 17.3901V13.2181C10.973 12.8821 10.743 12.6091 10.459 12.6091H8.51497C8.07397 12.6091 7.83797 11.9911 8.12997 11.5981" stroke="#002E52" stroke-width="1.5" stroke-linecap="round" stroke-linejoin="round"/>
</svg>
