<svg width="24" height="24" viewBox="0 0 24 24" fill="none" xmlns="http://www.w3.org/2000/svg">
<path d="M15.172 7.00016L8.586 13.5862C8.39498 13.7707 8.24262 13.9913 8.1378 14.2354C8.03298 14.4794 7.97781 14.7418 7.9755 15.0074C7.97319 15.2729 8.02379 15.5363 8.12436 15.7821C8.22492 16.0279 8.37342 16.2512 8.56121 16.439C8.749 16.6267 8.9723 16.7752 9.21809 16.8758C9.46388 16.9764 9.72724 17.027 9.9928 17.0247C10.2584 17.0224 10.5208 16.9672 10.7648 16.8624C11.0088 16.7575 11.2295 16.6052 11.414 16.4142L17.828 9.82816C18.5566 9.07376 18.9598 8.06335 18.9507 7.01456C18.9416 5.96577 18.5209 4.96252 17.7793 4.22089C17.0376 3.47926 16.0344 3.05858 14.9856 3.04947C13.9368 3.04035 12.9264 3.44353 12.172 4.17216L5.757 10.7572C4.63169 11.8825 3.99949 13.4087 3.99949 15.0002C3.99949 16.5916 4.63169 18.1179 5.757 19.2432C6.88231 20.3685 8.40857 21.0007 10 21.0007C11.5914 21.0007 13.1177 20.3685 14.243 19.2432L20.5 13.0002" stroke="#002E52" stroke-width="2" stroke-linecap="round" stroke-linejoin="round"/>
</svg>
