<svg width="18" height="18" viewBox="0 0 18 18" fill="none" xmlns="http://www.w3.org/2000/svg">
<path d="M16.4723 7.07045C17.928 7.94458 17.928 10.0551 16.4723 10.9292L6.22125 17.0807C4.76775 17.9526 2.93175 16.966 2.81813 15.3133L2.8125 15.1513V2.84833L2.81813 2.68745C2.93063 1.0337 4.76775 0.0482043 6.22125 0.920079L16.4723 7.07045ZM15.6049 9.48245C15.688 9.43245 15.7569 9.36177 15.8046 9.2773C15.8524 9.19283 15.8775 9.09744 15.8775 9.00039C15.8775 8.90335 15.8524 8.80795 15.8046 8.72348C15.7569 8.63901 15.688 8.56834 15.6049 8.51833L5.3505 2.36683C5.26524 2.31601 5.16804 2.28865 5.06879 2.28754C4.96953 2.28643 4.87175 2.31161 4.78537 2.36051C4.699 2.40941 4.6271 2.4803 4.57697 2.56598C4.52685 2.65165 4.5003 2.74907 4.5 2.84833V15.1513C4.49998 15.2509 4.52636 15.3486 4.57646 15.4346C4.62656 15.5206 4.69858 15.5918 4.78516 15.6408C4.87175 15.6899 4.96981 15.7151 5.06932 15.7139C5.16884 15.7127 5.26625 15.6851 5.35162 15.634L15.6049 9.48245Z" fill="#002E52"/>
</svg>
