<svg width="30" height="30" viewBox="0 0 30 30" fill="none" xmlns="http://www.w3.org/2000/svg">
<path d="M15 27.5C21.9037 27.5 27.5 22.8831 27.5 17.1875C27.5 13.1612 24.7031 9.81312 20.625 8.11499L18.4375 9.06249L18.75 12.5L14.6875 11.25L10.625 12.5V9.06249L8.75 8.11499C5.01375 9.89812 2.5 13.3706 2.5 17.1875C2.5 22.8831 8.09625 27.5 15 27.5Z" stroke="#002E52" stroke-width="2" stroke-linecap="round" stroke-linejoin="round"/>
<path d="M14.6875 2.5L17.0681 5.69812L22.5 6.19375L18.5394 9.05187L19.6875 13.125L14.6875 11.25L9.6875 13.125L10.8356 9.05187L6.875 6.19375L12.3069 5.69812L14.6875 2.5Z" stroke="#002E52" stroke-width="2" stroke-linecap="round" stroke-linejoin="round"/>
</svg>
