<svg width="24" height="24" viewBox="0 0 24 24" fill="none" xmlns="http://www.w3.org/2000/svg">
<path d="M5 8.2V15.8C5 16.92 5 17.48 5.218 17.907C5.41 18.284 5.715 18.59 6.092 18.782C6.519 19 7.079 19 8.197 19H15.804C16.922 19 17.48 19 17.908 18.782C18.284 18.59 18.59 18.284 18.782 17.907C19 17.48 19 16.921 19 15.803V8.197C19 7.079 19 6.519 18.782 6.092C18.5903 5.71569 18.2843 5.40974 17.908 5.218C17.48 5 16.92 5 15.8 5H8.2C7.08 5 6.52 5 6.092 5.218C5.71569 5.40974 5.40974 5.71569 5.218 6.092C5 6.52 5 7.08 5 8.2Z" stroke="#002E52" stroke-width="2" stroke-linecap="round" stroke-linejoin="round"/>
</svg>
