<svg width="30" height="30" viewBox="0 0 30 30" fill="none" xmlns="http://www.w3.org/2000/svg">
<path d="M19.6736 14.2449L15.8023 10.3749C15.694 10.2666 15.6177 10.1541 15.5736 10.0374C15.5294 9.92156 15.5073 9.79739 15.5073 9.66489C15.5073 9.53239 15.5294 9.40906 15.5736 9.29489C15.6177 9.18073 15.694 9.06948 15.8023 8.96114L19.6736 5.09114C19.7819 4.98281 19.8944 4.90656 20.0111 4.86239C20.1261 4.81823 20.2502 4.79614 20.3836 4.79614C20.5169 4.79614 20.6398 4.81823 20.7523 4.86239C20.8665 4.90573 20.9777 4.98198 21.0861 5.09114L24.9573 8.96114C25.0656 9.07031 25.1419 9.18281 25.1861 9.29864C25.2302 9.41531 25.2523 9.53948 25.2523 9.67114C25.2523 9.80281 25.2302 9.92614 25.1861 10.0411C25.1419 10.1545 25.0656 10.2657 24.9573 10.3749L21.0861 14.2449C20.9777 14.3541 20.8652 14.4307 20.7486 14.4749C20.6327 14.5191 20.5086 14.5411 20.3761 14.5411C20.2436 14.5411 20.1206 14.5191 20.0073 14.4749C19.894 14.4307 19.7827 14.3541 19.6736 14.2449ZM5.76855 12.2599V6.77864C5.76855 6.49281 5.86522 6.25323 6.05856 6.05989C6.25189 5.86656 6.49189 5.76948 6.77855 5.76864H12.2598C12.5456 5.76864 12.7852 5.86573 12.9786 6.05989C13.1719 6.25406 13.2686 6.49364 13.2686 6.77864V12.2599C13.2686 12.5457 13.1719 12.7853 12.9786 12.9786C12.7852 13.172 12.5456 13.2686 12.2598 13.2686H6.77855C6.49272 13.2686 6.25314 13.172 6.05981 12.9786C5.86647 12.7853 5.76939 12.5457 5.76855 12.2599ZM16.7311 23.2211V17.7399C16.7311 17.4541 16.8277 17.2145 17.0211 17.0211C17.2144 16.8278 17.454 16.7311 17.7398 16.7311H23.2211C23.5069 16.7311 23.7469 16.8278 23.9411 17.0211C24.1352 17.2145 24.2319 17.4541 24.2311 17.7399V23.2211C24.2311 23.507 24.1344 23.747 23.9411 23.9411C23.7477 24.1353 23.5077 24.232 23.2211 24.2311H17.7398C17.454 24.2311 17.2144 24.1341 17.0211 23.9399C16.8277 23.7457 16.7311 23.5061 16.7311 23.2211ZM5.76855 23.2211V17.7399C5.76855 17.4541 5.86564 17.2145 6.05981 17.0211C6.25397 16.8278 6.49355 16.7311 6.77855 16.7311H12.2598C12.5456 16.7311 12.7852 16.8278 12.9786 17.0211C13.1719 17.2145 13.269 17.4541 13.2698 17.7399V23.2211C13.2698 23.507 13.1727 23.747 12.9786 23.9411C12.7844 24.1353 12.5448 24.232 12.2598 24.2311H6.77855C6.49272 24.2311 6.25314 24.1341 6.05981 23.9399C5.86647 23.7457 5.76939 23.5061 5.76855 23.2211Z" fill="#002E52"/>
</svg>
